<?xml version="1.0" encoding="UTF-8"?>
<svg id="Calque_1" data-name="Calque 1" xmlns="http://www.w3.org/2000/svg" viewBox="0 0 932.81 774.15">
  <defs>
    <style>
      .cls-1 {
        fill: #023061;
      }

      .cls-2 {
        fill: #faebd2;
      }

      .cls-3 {
        fill: #2a93ea;
      }

      .cls-4 {
        fill: #0c102a;
      }
    </style>
  </defs>
  <path class="cls-1" d="M355,611.07c-2.75,5.24-2.4,7.83-9.76,8.75-11.58,1.45-23.1-8.9-29.91-17.06-4.39-5.25-17.55-30.84-19.39-32.12-1.66-1.15-32.45-7.49-39.1-9.9-30.37-11.01-61.22-34.03-51.19-70.76,1.23-4.52,8.45-15.49,8.33-16.4-.48-3.7-34.37-6.19-39.49-8.49-2.65-1.19-3.05-2.54-4.02-5.05,6.36-31.74,13.21-63.66,20.82-95.16,2.37-9.79,21.78-75.12,20.77-79.08-.51-1.98-10.4-5.86-12.03-7.29-43.67-38.05-68.45-87.93-85.37-143.36-.76-2.5-1.66-13.74-2.74-15.4-2.96-4.55-14.65-9.8-18.58-13.99-19.57-20.85-18.83-61.34,2.12-80.73,1.36-1.26,26.4-15.92,28.31-16.69C127.06,7,151.54,0,154.5,0c16.53-.02,27.44,9.35,33.16,23.91,1.87,4.77,1.53,10.71,2.89,14.11,1.75,4.41,8.22,8.32,10.64,14.36,4.56,11.36,1.89,28.24-3.46,38.91-9.29,18.54-18.01,7.46-9.7,34.24,4.72,15.21,33.96,66.79,48.97,71.53.68.22,2.41,1.47,2.99,1,3.68-2.96,22.26-80.37,25.01-91-.12-1.01.24-3.66,0-4-1.62-2.23-8.99-2.1-11.97-4.53-8.91-7.26,10.78-36.92,9.97-47.47,2.47-6.07,2.63-16.1,10.52-17.05,9.94-1.19,49.78,8.77,62.48,11.05,73.44,13.15,147.04,26.47,220,42,4.83,3.98,43.9,54.91,48,62,2.88,4.99,5.34,7.02,4.94,13.38-.18,2.93-12.64,43.12-14.06,44.99-5.07,6.66-14.94.47-21.87-.37-1.28-.16-2.97-1.81-4.8-.82-2.2,1.19-8.21,24.7-6.23,27.31,1.85,2.43,17.92,8.11,20.95,10.06,40.09,25.8,75.91,55.49,120.08,75.45,34.2,15.46,77.59,27.19,115,20,10.68-2.05,18.29-6.09,28-10,11.39-4.58,11.7-7.65,10.86,8.36-.83,15.63-11.17,38.97-18.86,52.64-35.95,63.91-89.06,35.04-123.22,80.28-22.48,29.77-32.39,53.09-73.78,61.72-28.83,6.01-53.79,1.83-81-8-21.09-9.36-54.99-35.16-77.42-33.02-2.25.22-20.82,5.21-21.46,6.13-2.21,3.14,7.68,20.65,9.7,24.57,3.43,6.63,15.07,27.82,19.32,32.69,2.23,2.56,14.38,4.72,19.9,9.09s8.89,12.9,10.96,19.54c7.01,22.45,9.65,51.08,0,73-.31.34-.65.69-1,1-7.93,3.51-13.49,4.68-22,2-10.91-5.39-26.3-22.53-32.41-33.09-2.94-5.08-3.21-13.35-7.52-18.48-2.64-3.13-11.57-8.01-15.81-11.48-25.64-20.97-57.99-50.1-78.34-78.56-2.96-4.15-4.12-14.5-9.96-17.86-2.14-1.23-30.44-6.98-32.21-6.58-1.39.32-21.69,17.28-21.64,18.71.15,3.91,37.9,13.59,44.89,23.33,7.81,24,17.07,50.72,10,76ZM167.39,16.67c-2.64-1.63-3.51-3.89-7.96-4.52-15.82-2.23-2.43,6.35.75,14.25,1.3,3.23,2.35,13.17,2.89,13.61,1.12.9,14.02-.3,15.33-1.81,5.42-6.27-5.78-18.29-11-21.52ZM143.61,21.46c-4.1-2.58-17.95-6.82-18.65.17-.12,1.22,10.42,14.6,12.23,17.75,1.21,2.11,3.49,11.5,5.31,11.67.65.06,10.33-7,10.56-7.61,2.31-6.27-4.14-18.63-9.45-21.98ZM229,207.07c-11.8-13.4-26.42-25.12-35.67-41.32-5.3-9.28-22.26-49.35-22.15-58.49.02-1.93,14.82-17.9,16.77-21.95,4.95-10.27,8.56-33.99-6.56-36.11-10.83-1.52-38.95,1.7-34.92,17.9s29.29,3.77,30.52,4.98c2.46,2.43-5.06,9.86-7.79,10.95-5.59,2.22-16.1,1.67-21.44-1.22-4.14-2.24-5.33-7.56-5.78-7.74-1.6-.66-10.91,11.94-25.23,6.75-5.42-1.97-11.63-11.46-8.28-16.77,2.5-3.98,8.86,8.37,12.24,8.96,25.83,4.46,5.82-50.13-14.69-42.39-2.58.97-12.52,17.32-13.57,20.45-7.49,22.4.73,37.59,16.54,52.02,2.61,2.38,10.63,6.68,11.77,8.73,2.3,4.16,5.02,22.98,7.22,29.78,4.77,14.8,9.32,26.45,16.02,40.48,16.67,34.9,37.36,63.29,67,88,4.66,3.88,3.76,6.46,7.01-.49,2.01-4.29,16.86-54.3,16.83-57.29-.03-3.3-2.61-5.35-5.84-5.23ZM330,103.07l68,12c21.05,3.89,41.88,8.25,63,12l61.73,12.74c1-.09,4.03-2.06,4.53-2.7,2.29-2.96,12.47-39.52,11.07-42.79-1.48-3.46-21.66-5.8-26.49-6.6-1.89-.31-3.25-1.88-2.85,1.36-42.17-9.06-84.52-16.49-127-24l-86-15c-3.27-.63-16.79-4.97-18.85-3.87s-15.62,40.8-14.67,42.86c1.43,3.14,59.44,12.45,67.53,14.01ZM557.39,110.68c-.94-1-4.18-9.29-7.87-5.61-1.5,1.49-12.33,38.42-12.12,40.52.36,3.5,17.53,23.51,21.09,27.48,2.48,2.77,25.89,26.99,27.49,25.99,1.75-1.08,10.96-37.63,10.4-39.8-.78-3.01-34.35-43.66-38.99-48.58ZM219,462.07c13.03,2.59,26.11,3.6,39,6l154.51,31.05,88.49-333.05c.84-2.78,5.45-16.66,5-18-1.38-4.09-75.33-14.74-85-15-23-4.23-45.95-8.92-69-13l-76.12-14.43c-32.74,115.75-69.64,230.26-94.69,348.14.46,4.3,32.41,7.77,37.81,8.28ZM499,210.07c-.62,2.08-4.04,13.98-3,15,1.46,1.45,10.78-1.77,13-2l41.05,4.58c1.48-1.05,9.22-33.2,9.04-35.1-.26-2.84-8.28-7.81-10.09-9.48-3.76-4.77-7.2-10.38-13-13-3.74-3.79-7.24-8.27-11-12,.26-2.97-5.05-11.59-8.49-7.99-4.02,4.2-14.15,51.26-17.51,59.99ZM678,319.07c-39.49-19.13-110.82-79.83-149.63-83.87-2.33-.24-29.8-.95-21.9,2.89,23.35,11.35,39.25,11.45,62.11,30.39,20.1,16.66,18.14,24.56,29.21,44.29,9.97,17.75,53.7,47.37,72.21,57.29l18.99,11.02c-16.85-2.96-36.38-11.75-51.99-20.02-10.34-5.47-20.4-11.8-29.93-18.57-1.6-1.13-7.04-7.44-7.57-7.4-1.37.09-8.72,21.7-10.74,25.27-7.44,13.12-30.13,26.94-34.18,33.78-10.59,17.86-3.71,27.51-28.19,40.81-2.98,1.62-12.87,3.65-13.39,4.12-1.47,1.36,15.07,25.12,17.01,27.5,13.59,16.61,43.64,43.31,63.99,50.5,1.78,3.53,10.71,5.71,14.16,6.34,19.24,3.57,42.46.2,56.84-13.34,34.15-19.45,36.27-58.51,71.74-72.76,36.63-14.72,56.71-6.71,85.7-43.27,4.94-6.24,24.87-46.54,21.56-49.96-.63-.65-10.34,3.49-12.59,3.89-31.21,5.62-55.68,4-86.4-2.9l-28.97-9.53c-12.73-5.28-25.63-10.47-38.03-16.47ZM490,244.07c-.34.09-.79-.13-1,0-15.15,51.56-29.9,103.42-42.92,155.58-4.44,17.8-22.55,80.19-21.89,93.94.04.87.46,3.3,1.4,3.51,3.18.71,37.65-12.63,44.17-13.26l12.24-59.77c-.88-1.71-10.38-7.71-11.99-12.59-3-9.1-5.95-32.23.37-43.07,2.32-3.98,8.92-6.16,9.34-6.59,2.69-2.72,6.43-9.64,8.49-11.51,1.69-1.53,6.78-1,8.75-4.04.9-1.38,9.45-30.08,9.08-31.68-1.48-6.48-21.05-1.12-18.11-11.81,2.41-8.74,49.66,4.75,53.98,20.85,2.31,8.61-6.92,35.92-16.4,35.54-6.17-.25-9.82-9.25-24.55-5.63-10.94,2.69-8.11,12.08-11.23,15.28-2.6,2.66-8.75.35-12.54,8.95-10.53,23.89,12.66,15.26,13.8,16.31,5.06,4.66-10.48,8.42-10.94,9.04-2.87,3.83,6.7,12.93,10.93,13.55,3.77.55,18.06-5.59,15.02,2.4-2.24,1.18-4.56,1.61-6,4-.1.17.03.64,0,1-.72,9.03,25.25-.61,30.46-5.04,13.07-11.09,10.22-23.17,17.54-33.96,9.51-14.03,28.93-20.41,35.79-41.71,15.46-47.98-50.59-100.02-91.79-99.29.53-3.21-2.66-2.87-2,0ZM291.5,521.07c-4.3-.86-10.89.62-15.5,0-1.35-6.57,9.33-11,13.51-14.99,2.27-2.16,4.57-6.42,6.78-8.71.56-.58,10.89-4.22,7.71-8.29-2.4-3.08-68.05-11.85-77-13,1.53,3.22-5.07,5.48-7.19,9.29-21.64,38.76,29.32,62.25,58.31,70.09,4.4,1.19,28.4,4.2,29.75,5.76.46.53,2.71,10.59,4.13,13.37,8.1,15.82,36.97,59.52,35.05,12.95-.35-8.52-6.25-39.44-11.06-45.66-1.5-1.94-41.24-20.16-44.47-20.81ZM448.74,502.34c-4.97-4.59-28.11,8.48-35.27,8.76-5.97.24-39.98-9.53-41.47-8.03-1.96,1.96,10.91,18.86,12.99,21.5,20.41,25.86,48.23,50.21,74.33,70.17.82.63,8.45,3.62,8.78,3.98,2.83,3.16,7.38,19.09,10.63,25.06.38.7,8.11,11.66,8.7,12.33,3.66,4.1,16.42,16.78,22.14,14.11,11.48-5.35,5.1-54.4.45-65.67-8.21-19.9-21.58-11.2-32.28-26.53l-29-55.68Z"/>
  <path class="cls-3" d="M661,683.07c22.16.83,36.27-4.13,56.54,6.96,8.34,4.56,13.8,11.05,16.94,20.06,11.34,32.54-6.49,59.26-39.95,63-3.59.4-32.34,1.16-33.52-.02-3.18-3.18,2.44-79.41,0-90ZM681,701.07c-1.62,2.38,1.24,47.15,0,54,24.69,4.31,46.5-17.53,33.02-41.52-4.36-7.75-28.78-18.71-33.02-12.48Z"/>
  <path class="cls-3" d="M0,773.07l33.01-91.01,25.07,1.67,33.92,89.33h-22.5c-2.87,0-3.82-15.78-7.5-17.5-1.48-.69-30.9-1.01-32.53-.58-3.9,1.03-6.49,18.07-7.47,18.07H0ZM35.5,738.07c4.27,1.42,16.26-1.05,21.5,0l-11.49-31.01c-1.08,2.65-13.38,29.88-10.01,31.01Z"/>
  <path class="cls-3" d="M223,683.07c1.36.74-1.34,29.18,0,30.99.41.55,7.92-5.64,11.93-6.55,12.91-2.95,31.06,1.57,31.06,18.06v46c0,.11-1.39,1.5-1.5,1.5h-17.5c-2.14-10.32,5.55-46.04-7.67-48.77-13.03-2.69-16.33,6.68-16.33,17.27v31.5h-19v-89.5c0-2.16,2.37-.5,2.5-.5,2.52,0,15.76-.4,16.5,0Z"/>
  <path class="cls-3" d="M807.69,719.38c.97,1.33,4.72,11.43,5.05,13.45,9.03,56.53-79.61,52.48-67.28-1.8,6.37-28,48.27-30.93,62.23-11.65ZM788.62,726.49c-13.16-9.53-28.94,1.78-26.36,16.83.35,2.07,8.33,13.46,10,13.99,18.47,5.91,31.64-19.76,16.36-30.82Z"/>
  <path class="cls-3" d="M391.5,744.07c-2.97,1.05,2.49,11.68,4.33,12.95,10.25,7.06,20.28-3.53,24.53-2.9,1.8.27,10.92,6.17,11.41,7.14,1.64,3.2-12.17,9.44-15.76,10.33-52.89,13.19-59.26-53.01-23.99-62.99,15.47-4.38,34.58.46,39.39,17.03.92,3.18,3.44,18.45-1.91,18.45-6.35,0-34.56-1.22-38,0ZM415,733.07c1.91-11.97-17.31-16.68-22.78-8.28-1.26,1.94-3.11,8.28.28,8.28h22.5Z"/>
  <path class="cls-1" d="M569.72,715.35c2.9,3.32,8.42,25.86,6.27,28.72-1.32,1.75-42.03-4.44-43.79.46-1.17,3.26,6.93,12.35,10.21,13.61,9.89,3.81,18.98-4.72,22.87-3.94.96.19,11.26,7.25,10.71,8.84-.27.78-12.7,7.5-14.47,8.06-56.38,17.92-62.93-66.72-12.94-63.84,5.5.32,17.5,3.93,21.13,8.08ZM542.72,720.29c-4.17.88-12.97,10.28-8.78,13.35.98.71,23.42-.04,24.16-.99,4.68-5.99-7.64-13.99-15.39-12.36Z"/>
  <path class="cls-3" d="M323,708.07c1.71,1.07,9.34,37.18,13.51,38.01,4.38.87,13.78-36.74,15.66-37.82.91-.52,20.62-2.17,19.37,1.3l-23.44,61.02c-1.29,2.92-18.06,3.56-19.67,3.14-3.42-.9-23.08-58.63-26.43-65.65,3.4.73,19.43-.98,21,0Z"/>
  <path class="cls-3" d="M181.48,726.58c-7.28-2.94-9.2-4.31-16.43-.74-14.22,7.01-8.06,36.92,11.52,31.29,5.7-1.64,6.02-6.97,13.56-2.97.45.24,7.21,6.44,7.42,6.91,2.58,6-17.19,11.61-22.02,12.03-51.63,4.51-48.96-70.63.85-65.91,4.94.47,21,6.6,20.19,12.95-.23,1.83-10.33,9.85-11.07,9.87-.35.01-3.11-3.06-4.02-3.43Z"/>
  <path class="cls-3" d="M871.91,711.2c.22.13,2.5,2.58,2.67,2.78,3.77,4.52,4.18,8.07-1.06,12.1-9.12,7-9.53-1.4-16.25-2.77-16.54-3.39-28.14,20.7-10.38,30.94.32.18-.44,2.44.77,2.85,12.24,4.17,15.91-9.01,25.11-2.67,13.01,8.97-.02,16.45-10.2,18.11-23.95,3.91-42.96-6.5-43.63-31.97s30.93-42.58,52.97-29.37Z"/>
  <path class="cls-1" d="M498,771.07c-1.69-.63-17,.85-17,0v-71.5c0-.11-1.39-1.5-1.5-1.5h-21.5v-14h61c-.51,4.98,1.58,10.91-2,15-6.31.22-12.7-.16-19.01,0v72.01Z"/>
  <path class="cls-3" d="M932,714.09c.32.58-6.89,10.89-7.55,10.95-2.54.24-23.29-10.52-22.24.37.65,6.77,24.24,8.08,28.18,17.77,10.17,24.99-13.65,33.21-33.81,29.81-3.13-.53-13.56-7.05-13.56-9.42,0-.64,7.4-9.82,7.99-10.07,2.95-1.24,6.58,5.83,12.47,6.58,4.32.55,11.41.57,11.62-5.5.24-7.01-13.68-7.59-18.81-10.3-21.2-11.23-12.47-38.12,14.25-37.26,3.59.12,20.27,4.89,21.46,7.07Z"/>
  <path class="cls-1" d="M627.87,714.19c.86,1.75-6.45,9.51-7.51,9.7-3.17.55-12.87-9.17-19.39-2.36-9.99,10.44,21.46,13.08,26.08,20.27,18.06,28.08-32.31,41.8-44.61,23.29-1.83-2.75,5.1-10.83,6.29-11.07,3.64-.73,12.61,9.8,21.83,5.09,15.25-7.79-13.97-14.4-17.59-16.51-24.32-14.15-3.76-41.98,24.02-34.02,1.48.42,10.61,5.06,10.88,5.61Z"/>
  <path class="cls-3" d="M116,713.07c2.63-4,16.43-7.7,20.03-4.53,1.34,1.18,1.46,11.47.83,12.89-1.18,2.62-18.5,1.38-20.86,19.14-.67,5.03,1.27,32.43,0,33.5-.69.58-15.08-2.4-17.99-1.01,1.77-7.77-2.3-62.71,0-65.01.78-.78,21.17-1.82,18.01,5.01Z"/>
  <rect class="cls-3" x="253.39" y="731.2" width="66.05" height="19.65" transform="translate(-456.59 1022.28) rotate(-89.6)"/>
  <path class="cls-4" d="M498,771.07c-1.44,3.97-15.09,1.18-19,2v-73l-22,1v-18c0-3.2,58.77,2.87,63.99-1-2.37,3.81.52,14.09-.22,16.53-.84,2.75-3.09.44-3.76.46,3.58-4.09,1.49-10.02,2-15h-61v14h21.5c.11,0,1.5,1.39,1.5,1.5v71.5c0,.85,15.31-.63,17,0Z"/>
  <path class="cls-3" d="M293.67,698.74c-10.58,10.21-24.96-7.2-14.76-14.25,11.76-8.12,23.94,5.38,14.76,14.25Z"/>
  <path class="cls-4" d="M556,87.07c-72.96-15.53-146.56-28.85-220-42,59.68,10.17,120.04,19.03,179.41,31.09,8.93,1.81,35.24,6.5,40.59,10.91Z"/>
  <path class="cls-4" d="M265,107.07c-2.76,10.63-21.34,88.04-25.01,91-.57.46-2.31-.79-2.99-1l28-90Z"/>
  <path class="cls-4" d="M818,339.07c-37.41,7.19-80.8-4.54-115-20,36.61,13.97,75.42,24.36,115,20Z"/>
  <path class="cls-4" d="M641,532.07c-26.53,10.22-56,3.1-81-8,27.21,9.83,52.17,14.01,81,8Z"/>
  <path class="cls-4" d="M521,583.07c3.24,3.76,5.59,14.23,6.49,19.98,2.24,14.27,3.6,42.03-6.49,53.02,9.65-21.92,7.01-50.55,0-73Z"/>
  <path class="cls-4" d="M355,611.07c7.07-25.28-2.19-52-10-76,10.63,14.82,18.6,59.6,10,76Z"/>
  <path class="cls-2" d="M661,683.07c2.44,10.59-3.18,86.82,0,90l-3.03-87.51c4.64-1.45-.12-1.45.01-1.97,1.26-5.01,2.74-.53,3.01-.52Z"/>
  <path class="cls-4" d="M265,103.07c-30.25,2.97-7.7-37.99-2-52,.81,10.55-18.88,40.21-9.97,47.47,2.98,2.43,10.35,2.3,11.97,4.53Z"/>
  <path class="cls-2" d="M98,773.07c.07-7.74-3.34-63.67-1.01-66.01.88-.88,25.17-2.44,19.01,6.01,3.17-6.82-17.22-5.79-18.01-5.01-2.3,2.3,1.77,57.23,0,65.01Z"/>
  <path class="cls-4" d="M846,329.07c10.94-9.83,13.58-5.29,12.67,7.2-1.22,16.72-10.05,40.75-20.67,53.8,7.69-13.67,18.03-37.02,18.86-52.64.85-16.01.53-12.94-10.86-8.36Z"/>
  <path class="cls-4" d="M604,149.07c15.96,13.89-5.29,40.8-7.12,58.38-5.64,8.6-16.67,4.35-23.88-.38,6.93.85,16.8,7.03,21.87.37,1.43-1.88,13.88-42.06,14.06-44.99.4-6.36-2.06-8.39-4.94-13.38Z"/>
  <path class="cls-4" d="M520,657.07c-8.64,7.58-13.13,6.38-22,2,8.51,2.68,14.07,1.51,22-2Z"/>
  <path class="cls-2" d="M219,462.07c-5.09-1.01-35.55-6.79-36.03-9.5-.13-.73,2.01-.33,2.04-1.08.7-18.54,9.5-47.58,14.09-66.64,20.39-84.75,48.6-176.21,74.85-261.41.35-1.15,1.99-14.78,2.94-15.78,25.17,2.72,50.14,7.99,75.11,12.41,23.05,4.08,46,8.77,69,13,28.35,5.21,56.64,10.22,85,15,.45,1.34-4.16,15.22-5,18-11.29,37.08-23.82,73.2-33.93,108.62l-4.08,21.39-1.98-1.01-49.01,202.99c-51.49-9.23-102.57-20.43-154-29.99-12.89-2.4-25.97-3.41-39-6ZM346.69,173.88c6.55-18.56-29.54-26.09-35.25-10.88-5.85,15.56,14.34,1.46,20.05,3.11,2.63.76,11.64,17.88,15.21,7.77ZM419.79,170.38c-9.75-7.78-36.57,2.16-28.82,13.97,3.47,5.29,11.17-4.19,12.26-4.62,9.15-3.66,9.02,3.82,14.87,6.74,13.4,6.68,7.7-11.28,1.69-16.08ZM326,195.07c-.1.27.07.66,0,1-5.29,3.96-1.67,7.67,2,11,7.33,16.29,52.83,18.6,66,7,2.49-2.19,6.82-9.17,1.27-10.84-4.75-1.43-11.02,4.65-15.86,5.75-9.25,2.1-26.07.79-34.69-2.91-6.33-2.71-10.57-11.65-17.71-11-.11-1.44-.52-1.3-1,0ZM301,235.07c-8.41.43-25.3,1.5-32,6-.41.28-2.24-.74-3.04.65-.49.85-3.88,16.2-4.48,19.04-7.21,34.4-5.94,75.03,19.52,101.31,5.59,8.23,17.03,21.55,25.49,27,9.28,5.98,41.96-6.72,52.21-11.8,14.23-7.05,28.12-18.28,38.3-30.2,10.88-12.75,32.42-60.43,30.08-76.52-.69-4.75-2.76-3.49-5.08-5.48-6.33-5.44-20.13-11.88-28-15-28.48-14.82-61.2-18.84-93-15ZM349,418.07l-19.01-4.01,1.02-1.98c-17.2,2.1-40.03-9.47-56.64-9.92-11.52-.31-7.98,6.21-9.42,11.24-.2.7-1.69.55-1.88,1.3-1.28,5.09-3.97,19.5.72,22.3,6.42,3.83,43.44,9.52,53.2,11.07,6.64,1.05,25.54,6.21,29.69,1.7,1.41-1.53,6.69-22.68,6.73-25.54.08-5.23-.34-5.11-4.42-6.16Z"/>
  <path class="cls-3" d="M670,370.07c-18.51-9.92-62.24-39.53-72.21-57.29-11.08-19.73-9.11-27.64-29.21-44.29-22.86-18.94-38.76-19.04-62.11-30.39-7.9-3.84,19.57-3.14,21.9-2.89,38.81,4.04,110.14,64.74,149.63,83.87,20.57,12.43,43.57,20.74,67,26,30.72,6.9,55.19,8.53,86.4,2.9,2.25-.41,11.96-4.55,12.59-3.89,3.31,3.42-16.62,43.73-21.56,49.96-28.99,36.56-49.07,28.55-85.7,43.27-35.47,14.26-37.59,53.31-71.74,72.76-24.59,14.01-44.06,16.52-71,7-20.36-7.19-50.41-33.88-63.99-50.5-1.95-2.38-18.48-26.14-17.01-27.5.51-.48,10.41-2.51,13.39-4.12,24.49-13.29,17.61-22.95,28.19-40.81,4.05-6.84,26.74-20.66,34.18-33.78,2.03-3.58,9.37-25.18,10.74-25.27.53-.03,5.98,6.27,7.57,7.4,9.53,6.77,19.59,13.1,29.93,18.57,17.13,10.68,38.24,19.46,57.79,24.71.86.23,17.67,4.77,13.21,1.3-4.91-3.83-29.95-12.7-38-17.01ZM598.63,432.44c-20.37-17.33-6.53,2.05-.22,10.21,16.75,21.65,47,42.13,75.58,40.42l-41.93-23.56c-12.58-7.29-22.52-17.79-33.43-27.07Z"/>
  <path class="cls-2" d="M492,244.07c41.21-.73,107.25,51.31,91.79,99.29-6.86,21.3-26.28,27.68-35.79,41.71-6.91.57-3.37,5.53-4.06,7.39-6.11,16.41-14.84,33.46-35.38,33.63-2.08.02-6.61-.96-8.56-2.02.03-.36-.1-.83,0-1,2.78-1.28,4.72-.63,6-4,3.04-8-11.25-1.85-15.02-2.4-4.23-.62-13.8-9.73-10.93-13.55.46-.62,16-4.38,10.94-9.04-1.13-1.04-24.32,7.58-13.8-16.31,3.79-8.6,9.94-6.29,12.54-8.95,3.12-3.2.29-12.59,11.23-15.28,14.73-3.62,18.38,5.39,24.55,5.63,9.48.38,18.72-26.93,16.4-35.54-4.32-16.09-51.57-29.59-53.98-20.85-2.94,10.69,16.63,5.32,18.11,11.81.37,1.61-8.18,30.3-9.08,31.68-1.98,3.03-7.07,2.51-8.75,4.04-2.07,1.87-5.8,8.79-8.49,11.51-.43.43-7.02,2.61-9.34,6.59-6.33,10.84-3.37,33.97-.37,43.07,1.61,4.88,11.11,10.87,11.99,12.59,1.37,2.66-13.29,51.6-13.94,58.26l-42.09,11.23,63.03-249.49c.21-.13.66.09,1,0,.48-.13,1.37.01,2,0Z"/>
  <path class="cls-2" d="M109,103.07c-15.81-14.43-24.04-29.62-16.54-52.02,1.05-3.13,10.99-19.47,13.57-20.45,20.5-7.74,40.52,46.85,14.69,42.39-3.38-.58-9.74-12.94-12.24-8.96-3.34,5.31,2.86,14.81,8.28,16.77,14.33,5.19,23.63-7.41,25.23-6.75.45.18,1.64,5.5,5.78,7.74,5.34,2.89,15.85,3.44,21.44,1.22,2.73-1.09,10.25-8.52,7.79-10.95-1.23-1.21-26.42,11.51-30.52-4.98s24.1-19.42,34.92-17.9c15.12,2.12,11.51,25.84,6.56,36.11-1.95,4.05-16.75,20.02-16.77,21.95-.11,9.14,16.85,49.2,22.15,58.49,9.24,16.21,23.87,27.92,35.67,41.32,3.16,3.59,4.5.06,3.87,7.35-.25,2.87-14.7,52.87-16.21,55.33-1.99,3.23-2.83,1.8-5.66.33-29.64-24.71-50.33-53.1-67-88-2.84-11.72-9.32-22.44-12.89-33.81-2.59-8.22-5.93-31.61-8.9-36.9-2.3-4.11-9.62-5.22-13.21-8.29Z"/>
  <path class="cls-3" d="M296,50.07c28.54,5.54,57.37,9.94,86,15,42.48,7.51,84.83,14.94,127,24,6.09,1.31,23.15,3.08,26.29,4.21,1.23.45,2.16,1.24,2.56,2.52.65,2.09-10.93,40.7-12.83,41.78-2.91,1.66-56.07-9.1-64.01-10.51-21.12-3.75-41.95-8.11-63-12-22.6-4.18-45.45-7.64-68-12-8.09-1.56-66.09-10.87-67.53-14.01-.94-2.06,12.68-41.79,14.67-42.86s15.58,3.24,18.85,3.87Z"/>
  <path class="cls-2" d="M448.74,502.34l29,55.68c10.69,15.34,24.07,6.63,32.28,26.53,4.65,11.27,11.03,60.32-.45,65.67-5.72,2.67-18.48-10.02-22.14-14.11-.6-.67-8.32-11.63-8.7-12.33-3.26-5.96-7.81-21.89-10.63-25.06-.32-.36-7.96-3.35-8.78-3.98-26.1-19.95-53.91-44.31-74.33-70.17-2.08-2.64-14.95-19.54-12.99-21.5,1.49-1.5,35.5,8.27,41.47,8.03,7.16-.28,30.31-13.36,35.27-8.76Z"/>
  <path class="cls-2" d="M291.5,521.07c3.24.65,42.97,18.87,44.47,20.81,4.82,6.22,10.71,37.13,11.06,45.66,1.92,46.57-26.95,2.87-35.05-12.95-1.42-2.78-3.67-12.84-4.13-13.37-1.35-1.56-25.35-4.57-29.75-5.76-28.99-7.83-79.94-31.33-58.31-70.09,2.13-3.81,8.72-6.06,7.19-9.29,8.95,1.15,74.6,9.92,77,13,3.18,4.08-7.16,7.72-7.71,8.29-2.21,2.29-4.51,6.55-6.78,8.71-4.19,3.99-14.86,8.42-13.51,14.99,4.61.62,11.2-.86,15.5,0Z"/>
  <path class="cls-3" d="M557.39,110.68c4.64,4.92,38.21,45.57,38.99,48.58.56,2.17-8.65,38.71-10.4,39.8-1.61,1-25.01-23.22-27.49-25.99-3.56-3.97-20.73-23.98-21.09-27.48-.22-2.1,10.62-39.03,12.12-40.52,3.69-3.68,6.93,4.61,7.87,5.61Z"/>
  <path class="cls-2" d="M499,210.07c4.65-15.53,10.52-30.26,15.72-45.53,1.98-5.8.43-15.87,7.54-10.52.64.48,1.14,2.47,2.73,4.04,3.76,3.73,7.26,8.21,11,12,4.65,4.72,7.92,8.33,13,13,1.88,2.38,8.83,8.94,8.97,9.58.32,1.53-7.47,25.98-8.63,30.11-.3,1.07,1.12,3.83.66,4.31-.83.87-19.33-4.67-23.52-4.97-6.09-.42-11.49.33-17.47.97-2.23.24-11.54,3.45-13,2-1.03-1.02,2.38-12.92,3-15Z"/>
  <path class="cls-4" d="M501,166.07l-88.49,333.05-154.51-31.05c51.43,9.56,102.51,20.76,154,29.99l49.01-202.99,1.98,1.01,4.08-21.39c10.11-35.42,22.64-71.54,33.93-108.62Z"/>
  <path class="cls-2" d="M143.61,21.46c5.31,3.34,11.76,15.7,9.45,21.98-.22.61-9.91,7.67-10.56,7.61-1.83-.17-4.11-9.56-5.31-11.67-1.81-3.15-12.35-16.53-12.23-17.75.71-6.99,14.55-2.75,18.65-.17Z"/>
  <path class="cls-4" d="M489,244.07l-63.03,249.49,42.09-11.23c.65-6.65,15.32-55.59,13.94-58.26l-12.24,59.77c-6.52.64-40.99,13.97-44.17,13.26-.94-.21-1.36-2.64-1.4-3.51-.66-13.75,17.45-76.14,21.89-93.94,13.02-52.16,27.77-104.02,42.92-155.58Z"/>
  <path class="cls-4" d="M219,462.07c-5.39-.51-37.35-3.98-37.81-8.28,25.05-117.89,61.95-232.4,94.69-348.14l76.12,14.43c-24.97-4.42-49.94-9.69-75.11-12.41-.94,1.01-2.58,14.64-2.94,15.78-26.25,85.2-54.46,176.66-74.85,261.41-4.59,19.05-13.39,48.09-14.09,66.64-.03.74-2.16.35-2.04,1.08.47,2.71,30.94,8.49,36.03,9.5Z"/>
  <path class="cls-2" d="M167.39,16.67c5.22,3.23,16.43,15.25,11,21.52-1.31,1.52-14.2,2.71-15.33,1.81-.54-.43-1.59-10.38-2.89-13.61-3.17-7.9-16.57-16.47-.75-14.25,4.45.63,5.32,2.89,7.96,4.52Z"/>
  <path class="cls-4" d="M296,50.07l86,15c-28.63-5.06-57.46-9.46-86-15Z"/>
  <path class="cls-4" d="M665,510.07c-14.38,13.55-37.6,16.91-56.84,13.34-3.44-.64-12.38-2.81-14.16-6.34,26.94,9.52,46.41,7.01,71-7Z"/>
  <path class="cls-4" d="M506,148.07c-28.36-4.78-56.65-9.79-85-15,9.67.26,83.62,10.91,85,15Z"/>
  <path class="cls-4" d="M637,361.07c15.61,8.26,35.14,17.06,51.99,20.02l-18.99-11.02c8.05,4.31,33.09,13.18,38,17.01,4.46,3.47-12.35-1.07-13.21-1.3-19.54-5.25-40.65-14.04-57.79-24.71Z"/>
  <path class="cls-4" d="M509,89.07c-.4-3.24.96-1.67,2.85-1.36,4.83.8,25.01,3.14,26.49,6.6,1.4,3.27-8.79,39.84-11.07,42.79-.5.65-3.53,2.62-4.53,2.7l-61.73-12.74c7.94,1.41,61.1,12.16,64.01,10.51,1.9-1.08,13.49-39.69,12.83-41.78-.4-1.28-1.32-2.07-2.56-2.52-3.14-1.13-20.2-2.9-26.29-4.21Z"/>
  <path class="cls-4" d="M229,207.07c3.23-.12,5.81,1.93,5.84,5.23.03,2.99-14.82,52.99-16.83,57.29-3.25,6.94-2.35,4.37-7.01.49,2.83,1.47,3.67,2.9,5.66-.33,1.51-2.45,15.96-52.46,16.21-55.33.63-7.29-.71-3.76-3.87-7.35Z"/>
  <path class="cls-4" d="M109,103.07c3.59,3.07,10.91,4.18,13.21,8.29,2.97,5.3,6.31,28.68,8.9,36.9,3.57,11.37,10.06,22.08,12.89,33.81-6.7-14.03-11.25-25.68-16.02-40.48-2.19-6.8-4.92-25.62-7.22-29.78-1.13-2.05-9.15-6.35-11.77-8.73Z"/>
  <path class="cls-4" d="M536,170.07c5.8,2.62,9.24,8.23,13,13,1.82,1.67,9.83,6.64,10.09,9.48.17,1.9-7.57,34.05-9.04,35.1l-41.05-4.58c5.98-.64,11.38-1.39,17.47-.97,4.19.29,22.69,5.83,23.52,4.97.46-.48-.96-3.24-.66-4.31,1.16-4.12,8.95-28.57,8.63-30.11-.13-.64-7.09-7.19-8.97-9.58-5.08-4.67-8.35-8.28-13-13Z"/>
  <path class="cls-4" d="M398,115.07l-68-12c22.55,4.36,45.4,7.82,68,12Z"/>
  <path class="cls-4" d="M525,158.07c-1.59-1.58-2.09-3.56-2.73-4.04-7.11-5.36-5.56,4.71-7.54,10.52-5.2,15.27-11.07,30-15.72,45.53,3.36-8.73,13.49-55.79,17.51-59.99,3.44-3.6,8.75,5.02,8.49,7.99Z"/>
  <path class="cls-4" d="M678,319.07c12.4,6,25.3,11.19,38.03,16.47l28.97,9.53c-23.43-5.26-46.43-13.57-67-26Z"/>
  <path class="cls-4" d="M500,424.07c1.95,1.05,6.48,2.03,8.56,2.02,20.54-.17,29.27-17.22,35.38-33.63.69-1.86-2.85-6.81,4.06-7.39-7.31,10.79-4.47,22.87-17.54,33.96-5.21,4.42-31.18,14.07-30.46,5.04Z"/>
  <path class="cls-4" d="M490,244.07c-.66-2.87,2.53-3.21,2,0-.63.01-1.52-.13-2,0Z"/>
  <path class="cls-4" d="M506,419.07c-1.28,3.37-3.22,2.72-6,4,1.44-2.39,3.76-2.82,6-4Z"/>
  <path class="cls-1" d="M301,235.07c34.58-1.75,61.02,2.31,93,15,7.87,3.12,21.67,9.56,28,15,7.05,6.91-.04,24.68-2.74,33.76-5.37,18.09-13.46,31.87-22.26,48.24-10.18,11.92-24.07,23.15-38.3,30.2-10.25,5.08-42.93,17.77-52.21,11.8-8.46-5.45-19.9-18.77-25.49-27-26.26-38.66-25.99-77.26-12-121,6.7-4.5,23.59-5.57,32-6ZM347,248.07c.78-2.71-4.15-2.69-5.63-2.86-9.53-1.14-59.03-.91-64.98,3.76-4.47,3.5-11.07,58.44-7.39,63.11,3.34,4.24,2.06-3.03,1.99-4.01,1.66-.72,3.41-1.43,4.45-3.05,3.76-5.84,18.42-36.74,21.97-39.03,2.36-1.53,13.74-.22,15,.95,2.07,1.91,3.22,49.46,5.16,56.16-17.43,5.73-10.52-6.55-14.58-10.54-.55-.54-12.81-3.35-13.73-3.24-2.83.35-6.37,8.06-9.51,9.03-2.02.63-6.94-.99-7.77-.28-.96.83,7.34,21.32,8.63,23.86,4.21,8.25,27.11,36.56,35.82,36.99,2.86.14,16.45-4.52,20.05-5.84,26.99-9.9,51.91-27.8,64.72-54.28,2.13-4.4,13.37-40.59,12.64-43.07-2.7-9.12-56.27-26.02-66.87-27.66ZM301.99,298.07c.43-.5.48-11.88-1.97-12.99.39,2.27-6.34,10.87-5.01,11.99.27.23,6.76,1.27,6.99,1Z"/>
  <path class="cls-1" d="M349,418.07c4.08,1.05,4.5.93,4.42,6.16-.05,2.86-5.32,24-6.73,25.54-4.15,4.51-23.05-.65-29.69-1.7l-51.73-11.27c-4.89-2.72,1.85-31.27,2.97-32.5.9-1,4.04-.53,5.39-.43,16.52,1.17,58.5,9.86,75.37,14.21ZM339,441.07l3-13.99-63.53-11.82c-4.37-1.2-5.85,10.86-4.47,12.81l65,13Z"/>
  <path class="cls-1" d="M327,195.07c7.14-.66,11.38,8.29,17.71,11,8.63,3.7,25.44,5.01,34.69,2.91,4.84-1.1,11.12-7.18,15.86-5.75,5.55,1.67,1.22,8.65-1.27,10.84-21.06,8.79-48.18,9.15-66-7-2.41-5.35-3.28-5.17-2-11,.07-.34-.1-.73,0-1h1Z"/>
  <path class="cls-1" d="M419.79,170.38c6.02,4.8,11.72,22.76-1.69,16.08-5.85-2.92-5.73-10.39-14.87-6.74-1.09.44-8.78,9.91-12.26,4.62-7.76-11.81,19.07-21.75,28.82-13.97Z"/>
  <path class="cls-1" d="M346.69,173.88c-3.57,10.11-12.58-7.01-15.21-7.77-5.71-1.65-25.89,12.44-20.05-3.11,5.72-15.21,41.8-7.68,35.25,10.88Z"/>
  <path class="cls-4" d="M269,241.07c-13.99,43.74-14.26,82.34,12,121-25.46-26.28-26.73-66.91-19.52-101.31.6-2.84,3.99-18.2,4.48-19.04.8-1.39,2.63-.37,3.04-.65Z"/>
  <path class="cls-4" d="M317,448.07c-9.77-1.54-46.78-7.23-53.2-11.07-4.69-2.8-2-17.21-.72-22.3.19-.75,1.67-.6,1.88-1.3,1.44-5.03-2.1-11.55,9.42-11.24,16.61.45,39.44,12.02,56.64,9.92l-1.02,1.98,19.01,4.01c-16.87-4.35-58.84-13.04-75.37-14.21-1.35-.1-4.49-.57-5.39.43-1.12,1.24-7.86,29.78-2.97,32.5l51.73,11.27Z"/>
  <path class="cls-4" d="M394,250.07c-31.98-12.69-58.42-16.75-93-15,31.8-3.84,64.52.18,93,15Z"/>
  <path class="cls-4" d="M422,265.07c2.32,1.99,4.38.73,5.08,5.48,2.35,16.08-19.2,63.77-30.08,76.52,8.8-16.37,16.89-30.14,22.26-48.24,2.69-9.08,9.79-26.85,2.74-33.76Z"/>
  <path class="cls-4" d="M328,207.07c17.82,16.15,44.94,15.79,66,7-13.17,11.6-58.67,9.29-66-7-3.67-3.33-7.29-7.04-2-11-1.28,5.83-.41,5.65,2,11Z"/>
  <path class="cls-4" d="M327,195.07h-1c.48-1.3.89-1.44,1,0Z"/>
  <path class="cls-1" d="M598.63,432.44c10.91,9.28,20.85,19.78,33.43,27.07l41.93,23.56c-28.57,1.71-58.83-18.77-75.58-40.42-6.31-8.16-20.16-27.54.22-10.21Z"/>
  <path class="cls-3" d="M347,248.07c10.6,1.64,64.17,18.54,66.87,27.66.74,2.49-10.5,38.67-12.64,43.07-12.82,26.48-37.73,44.37-64.72,54.28-3.6,1.32-17.19,5.99-20.05,5.84-8.72-.44-31.61-28.74-35.82-36.99-1.3-2.54-9.6-23.03-8.63-23.86.83-.71,5.75.91,7.77.28,3.14-.98,6.68-8.69,9.51-9.03.92-.11,13.18,2.7,13.73,3.24,4.06,3.99-2.85,16.27,14.58,10.54-1.94-6.7-3.09-54.25-5.16-56.16-1.26-1.17-12.64-2.48-15-.95-3.54,2.29-18.21,33.19-21.97,39.03-1.04,1.62-2.79,2.32-4.45,3.05-.57-8.25,1.12-53.25,6.25-57.76,6.42-5.64,59.21-3.88,69.75-2.24ZM355,286.07c.42.02,1.92,2.31,3.51,0,.35-.5,2.95-11.58,2.5-12-1.33-1.23-34.56-6.11-35.96-4.95-.43.35-2.35,10.46-2.05,10.93.27.43,8.44,1.75,10.01,2.02,2.82,6.39-5.63,27.18-6,36-10.02,10.14,8.52,13.56,10.51,11.03,2.91-3.68,6.42-37.23,8.49-44.03,1.26-.55,6.79.88,9,1ZM355,317.07c-.68,2.48-3.93,12.99-2.03,14.51,1.38,1.1,16.82,2.68,19.56,2.53,22.45-1.23,32.34-27.67,22.47-46.04-3.9-7.26-27.09-16.24-30.98-12.98-1.64,1.38-6.89,36.94-9.02,41.98Z"/>
  <path class="cls-4" d="M271,308.07c.07.97,1.35,8.25-1.99,4.01-3.68-4.67,2.92-59.61,7.39-63.11,5.95-4.66,55.45-4.9,64.98-3.76,1.48.18,6.41.15,5.63,2.86-10.54-1.63-63.33-3.4-69.75,2.24-5.13,4.51-6.82,49.5-6.25,57.76Z"/>
  <path class="cls-3" d="M301.99,298.07c-.23.27-6.72-.78-6.99-1-1.33-1.12,5.41-9.72,5.01-11.99,2.45,1.11,2.4,12.49,1.97,12.99Z"/>
  <path class="cls-2" d="M274,428.07c-1.39-1.95.1-14.01,4.47-12.81l63.53,11.82-3,13.99-65-13Z"/>
  <path class="cls-4" d="M274,428.07l65,13-65-13Z"/>
  <path class="cls-1" d="M355,317.07c.03-.09,1.81.27,1.9-.08,1.45-5.4,6.61-38.53,8.11-39.91,2.93-2.68,27.6,5.04,29.99,10.99,9.87,18.36-.02,44.8-22.47,46.04-2.73.15-18.18-1.43-19.56-2.53-1.89-1.51,1.35-12.03,2.03-14.51ZM384.68,296.39c-.66-1.21-9.21-7.24-10.66-6.32-1.36.86-7.41,30.63-6.08,31.53,9.18,6.2,22.74-14.26,16.74-25.21Z"/>
  <path class="cls-1" d="M333,282.07c1.2-2.49-7.3-2.13-7.93-3.09-.24-.38.61-8.6.93-8.92,1.19-1.17,31.79,3.86,33,5.01.55.53-1.14,10.35-4.01,11-2.21-.12-7.74-1.55-9-1-3.46,1.53-8.3,40.69-10.04,41.97-.6.44-8.93-1.06-9.54-1.91-.21-.29.51-5.54.58-7.05.37-8.82,8.82-29.61,6-36Z"/>
  <path class="cls-4" d="M346,285.07c-2.07,6.8-5.59,40.35-8.49,44.03-1.99,2.52-20.53-.89-10.51-11.03-.06,1.51-.78,6.76-.58,7.05.61.85,8.94,2.35,9.54,1.91,1.74-1.28,6.58-40.44,10.04-41.97Z"/>
  <path class="cls-4" d="M355,317.07c2.13-5.03,7.38-40.59,9.02-41.98,3.88-3.26,27.07,5.72,30.98,12.98-2.39-5.94-27.05-13.66-29.99-10.99-1.5,1.37-6.66,34.51-8.11,39.91-.09.35-1.88-.01-1.9.08Z"/>
  <path class="cls-4" d="M333,282.07c-1.57-.27-9.73-1.58-10.01-2.02-.3-.47,1.62-10.58,2.05-10.93,1.4-1.15,34.62,3.72,35.96,4.95.45.42-2.15,11.49-2.5,12-1.58,2.3-3.08.02-3.51,0,2.86-.65,4.56-10.47,4.01-11-1.21-1.15-31.81-6.18-33-5.01-.32.31-1.18,8.54-.93,8.92.63.96,9.13.6,7.93,3.09Z"/>
  <path class="cls-3" d="M384.68,296.39c6,10.95-7.57,31.41-16.74,25.21-1.33-.9,4.72-30.67,6.08-31.53,1.45-.92,10,5.12,10.66,6.32Z"/>
</svg>